<svg xmlns="http://www.w3.org/2000/svg" viewBox="0 0 512 512" width="100%" height="100%">
  <rect width="512" height="512" rx="112" fill="#F4F6F9"/>

  <g transform="translate(195, 225) rotate(-10)">
    <path d="M 0 -90 H -140 A 20 20 0 0 0 -160 -70 V 70 A 20 20 0 0 0 -140 90 H 0 Z" fill="#FFFFFF" stroke="#242830" stroke-width="12" stroke-linejoin="round" stroke-linecap="round"/>
    
    <path d="M 0 -65 H -120 A 12 12 0 0 0 -132 -53 V 53 A 12 12 0 0 0 -120 65 H 0 Z" fill="#A2D39C" stroke="#242830" stroke-width="10" stroke-linejoin="round" stroke-linecap="round"/>
    
    <rect x="-135" y="-78" width="16" height="14" rx="4" fill="#242830"/>
    <rect x="-100" y="-78" width="16" height="14" rx="4" fill="#242830"/>
    <rect x="-65" y="-78" width="16" height="14" rx="4" fill="#242830"/>
    <rect x="-30" y="-78" width="16" height="14" rx="4" fill="#242830"/>
    
    <rect x="-135" y="64" width="16" height="14" rx="4" fill="#242830"/>
    <rect x="-100" y="64" width="16" height="14" rx="4" fill="#242830"/>
    <rect x="-65" y="64" width="16" height="14" rx="4" fill="#242830"/>
    <rect x="-30" y="64" width="16" height="14" rx="4" fill="#242830"/>
    
    <path d="M -45 -45 L 0 -18 L 0 18 L -45 45 Z" fill="#FFFFFF" stroke="#242830" stroke-width="10" stroke-linejoin="round" stroke-linecap="round"/>
  </g>

  <g transform="translate(315, 265) rotate(10)">
    <path d="M 0 -90 H 140 A 20 20 0 0 1 160 -70 V 70 A 20 20 0 0 1 140 90 H 0 Z" fill="#FFFFFF" stroke="#242830" stroke-width="12" stroke-linejoin="round" stroke-linecap="round"/>
    
    <path d="M 0 -65 H 120 A 12 12 0 0 1 132 -53 V 53 A 12 12 0 0 1 120 65 H 0 Z" fill="#A2D39C" stroke="#242830" stroke-width="10" stroke-linejoin="round" stroke-linecap="round"/>
    
    <rect x="19" y="-78" width="16" height="14" rx="4" fill="#242830"/>
    <rect x="54" y="-78" width="16" height="14" rx="4" fill="#242830"/>
    <rect x="89" y="-78" width="16" height="14" rx="4" fill="#242830"/>
    <rect x="124" y="-78" width="16" height="14" rx="4" fill="#242830"/>
    
    <rect x="19" y="64" width="16" height="14" rx="4" fill="#242830"/>
    <rect x="54" y="64" width="16" height="14" rx="4" fill="#242830"/>
    <rect x="89" y="64" width="16" height="14" rx="4" fill="#242830"/>
    <rect x="124" y="64" width="16" height="14" rx="4" fill="#242830"/>
    
    <path d="M 0 -18 L 30 0 L 0 18 Z" fill="#FFFFFF" stroke="#242830" stroke-width="10" stroke-linejoin="round" stroke-linecap="round"/>
  </g>

  <text x="256" y="455" text-anchor="middle" font-family="system-ui, -apple-system, sans-serif" font-size="36" font-weight="800" fill="#242830" letter-spacing="1.5">VideoCut</text>
</svg>
