<svg xmlns="http://www.w3.org/2000/svg" viewBox="0 0 512 512" width="100%" height="100%">
<!--<rect width="400" height="412" x="50" y="50"  rx="112" fill="#63809d"/>-->
  <g transform="translate(256, 215) rotate(-10) scale(1.2)">
    <path d="M 0 -90 H -140 A 20 20 0 0 0 -160 -70 V 70 A 20 20 0 0 0 -140 90 H 0 Z" fill="#4d6780" stroke="#2c3e50" stroke-width="10" stroke-linejoin="round" stroke-linecap="round"/>
    <path d="M 0 -65 H -120 A 12 12 0 0 0 -132 -53 V 53 A 12 12 0 0 0 -120 65 H 0 Z" fill="#1e608d" stroke="#2c3e50" stroke-width="8" stroke-linejoin="round" stroke-linecap="round"/>
    <rect x="-129" y="-80" width="16" height="16" rx="4" fill="#2c3e50"/>
    <rect x="-95" y="-80" width="16" height="16" rx="4" fill="#2c3e50"/>
    <rect x="-61" y="-80" width="16" height="16" rx="4" fill="#2c3e50"/>
    <rect x="-27" y="-80" width="16" height="16" rx="4" fill="#2c3e50"/>
    <rect x="-129" y="66" width="16" height="16" rx="4" fill="#2c3e50"/>
    <rect x="-95" y="66" width="16" height="16" rx="4" fill="#2c3e50"/>
    <rect x="-61" y="66" width="16" height="16" rx="4" fill="#2c3e50"/>
    <rect x="-27" y="66" width="16" height="16" rx="4" fill="#2c3e50"/>
    <path d="M -45 -45 L 0 -18 L 0 18 L -45 45 Z" fill="#97bdd7" stroke="#2c3e50" stroke-width="8" stroke-linejoin="round" stroke-linecap="round"/>
  </g>
  <g transform="translate(256, 275) rotate(10) scale(1.2)">
    <path d="M 0 -90 H 140 A 20 20 0 0 1 160 -70 V 70 A 20 20 0 0 1 140 90 H 0 Z" fill="#4d6780" stroke="#2c3e50" stroke-width="10" stroke-linejoin="round" stroke-linecap="round"/>
    <path d="M 0 -65 H 120 A 12 12 0 0 1 132 -53 V 53 A 12 12 0 0 1 120 65 H 0 Z" fill="#1e608d" stroke="#2c3e50" stroke-width="8" stroke-linejoin="round" stroke-linecap="round"/>
    <rect x="19" y="-80" width="16" height="16" rx="4" fill="#2c3e50"/>
    <rect x="51" y="-80" width="16" height="16" rx="4" fill="#2c3e50"/>
    <rect x="83" y="-80" width="16" height="16" rx="4" fill="#2c3e50"/>
    <rect x="114" y="-80" width="16" height="16" rx="4" fill="#2c3e50"/>
    <rect x="19" y="66" width="16" height="16" rx="4" fill="#2c3e50"/>
    <rect x="51" y="66" width="16" height="16" rx="4" fill="#2c3e50"/>
    <rect x="83" y="66" width="16" height="16" rx="4" fill="#2c3e50"/>
    <rect x="114" y="66" width="16" height="16" rx="4" fill="#2c3e50"/>
    <path d="M 0 -18 L 30 0 L 0 18 Z" fill="#97bdd7" stroke="#2c3e50" stroke-width="8" stroke-linejoin="round" stroke-linecap="round"/>
  </g>
</svg>
